solid OpenSCAD_Model
  facet normal 1 -0 0
    outer loop
      vertex 94 0 2
      vertex 94 19 0
      vertex 94 19 2
    endloop
  endfacet
  facet normal 1 0 0
    outer loop
      vertex 94 19 0
      vertex 94 0 2
      vertex 94 0 0
    endloop
  endfacet
  facet normal -0 0 1
    outer loop
      vertex 2 15 2
      vertex 92 4 2
      vertex 92 15 2
    endloop
  endfacet
  facet normal 0 0 1
    outer loop
      vertex 92 4 2
      vertex 2 15 2
      vertex 2 4 2
    endloop
  endfacet
  facet normal 0 0 1
    outer loop
      vertex 92 15 2
      vertex 94 19 2
      vertex 92 19 2
    endloop
  endfacet
  facet normal 0 0 1
    outer loop
      vertex 94 19 2
      vertex 92 15 2
      vertex 94 0 2
    endloop
  endfacet
  facet normal -0 0 1
    outer loop
      vertex 92 4 2
      vertex 94 0 2
      vertex 92 15 2
    endloop
  endfacet
  facet normal 0 0 1
    outer loop
      vertex 94 0 2
      vertex 92 4 2
      vertex 92 0 2
    endloop
  endfacet
  facet normal 0 0 -1
    outer loop
      vertex 0 0 0
      vertex 94 19 0
      vertex 94 0 0
    endloop
  endfacet
  facet normal -0 0 -1
    outer loop
      vertex 94 19 0
      vertex 0 0 0
      vertex 0 19 0
    endloop
  endfacet
  facet normal -1 0 0
    outer loop
      vertex 0 0 0
      vertex 0 19 10.5
      vertex 0 19 0
    endloop
  endfacet
  facet normal -1 -0 0
    outer loop
      vertex 0 19 10.5
      vertex 0 0 0
      vertex 0 0 10.5
    endloop
  endfacet
  facet normal 0 1 0
    outer loop
      vertex 94 19 2
      vertex 94 19 0
      vertex 92 19 2
    endloop
  endfacet
  facet normal 0 1 -0
    outer loop
      vertex 92 19 2
      vertex 0 19 10.5
      vertex 92 19 10.5
    endloop
  endfacet
  facet normal 0 1 0
    outer loop
      vertex 0 19 0
      vertex 92 19 2
      vertex 94 19 0
    endloop
  endfacet
  facet normal 0 1 0
    outer loop
      vertex 92 19 2
      vertex 0 19 0
      vertex 0 19 10.5
    endloop
  endfacet
  facet normal 0 -1 0
    outer loop
      vertex 0 0 10.5
      vertex 92 0 2
      vertex 92 0 10.5
    endloop
  endfacet
  facet normal 0 -1 0
    outer loop
      vertex 0 0 0
      vertex 92 0 2
      vertex 0 0 10.5
    endloop
  endfacet
  facet normal 0 -1 0
    outer loop
      vertex 94 0 0
      vertex 92 0 2
      vertex 0 0 0
    endloop
  endfacet
  facet normal 0 -1 0
    outer loop
      vertex 92 0 2
      vertex 94 0 0
      vertex 94 0 2
    endloop
  endfacet
  facet normal 1 -0 0
    outer loop
      vertex 2 2 8.5
      vertex 2 4 7
      vertex 2 4 8.5
    endloop
  endfacet
  facet normal 1 0 0
    outer loop
      vertex 2 4 7
      vertex 2 2 8.5
      vertex 2 2 7
    endloop
  endfacet
  facet normal 1 0 0
    outer loop
      vertex 2 4 8.5
      vertex 2 15 8.5
      vertex 2 15 10.5
    endloop
  endfacet
  facet normal 1 0 0
    outer loop
      vertex 2 15 8.5
      vertex 2 4 8.5
      vertex 2 15 7
    endloop
  endfacet
  facet normal 1 0 0
    outer loop
      vertex 2 4 8.5
      vertex 2 15 10.5
      vertex 2 4 10.5
    endloop
  endfacet
  facet normal 1 0 0
    outer loop
      vertex 2 15 7
      vertex 2 4 8.5
      vertex 2 4 7
    endloop
  endfacet
  facet normal 1 0 0
    outer loop
      vertex 2 15 7
      vertex 2 4 7
      vertex 2 15 2
    endloop
  endfacet
  facet normal 1 0 0
    outer loop
      vertex 2 15 2
      vertex 2 4 7
      vertex 2 4 2
    endloop
  endfacet
  facet normal 1 -0 0
    outer loop
      vertex 2 15 8.5
      vertex 2 17 7
      vertex 2 17 8.5
    endloop
  endfacet
  facet normal 1 0 0
    outer loop
      vertex 2 17 7
      vertex 2 15 8.5
      vertex 2 15 7
    endloop
  endfacet
  facet normal 0 0 1
    outer loop
      vertex 92 19 10.5
      vertex 2 15 10.5
      vertex 92 15 10.5
    endloop
  endfacet
  facet normal 0 0 1
    outer loop
      vertex 2 15 10.5
      vertex 0 19 10.5
      vertex 2 4 10.5
    endloop
  endfacet
  facet normal -0 0 1
    outer loop
      vertex 0 19 10.5
      vertex 2 15 10.5
      vertex 92 19 10.5
    endloop
  endfacet
  facet normal -0 0 1
    outer loop
      vertex 2 4 10.5
      vertex 92 0 10.5
      vertex 92 4 10.5
    endloop
  endfacet
  facet normal 0 0 1
    outer loop
      vertex 2 4 10.5
      vertex 0 0 10.5
      vertex 92 0 10.5
    endloop
  endfacet
  facet normal 0 0 1
    outer loop
      vertex 0 0 10.5
      vertex 2 4 10.5
      vertex 0 19 10.5
    endloop
  endfacet
  facet normal 1 0 0
    outer loop
      vertex 92 4 10.5
      vertex 92 2 8.5
      vertex 92 4 8.5
    endloop
  endfacet
  facet normal 1 0 0
    outer loop
      vertex 92 2 8.5
      vertex 92 0 10.5
      vertex 92 2 7
    endloop
  endfacet
  facet normal 1 -0 0
    outer loop
      vertex 92 0 10.5
      vertex 92 2 8.5
      vertex 92 4 10.5
    endloop
  endfacet
  facet normal 1 -0 0
    outer loop
      vertex 92 2 7
      vertex 92 4 2
      vertex 92 4 7
    endloop
  endfacet
  facet normal 1 0 0
    outer loop
      vertex 92 0 2
      vertex 92 2 7
      vertex 92 0 10.5
    endloop
  endfacet
  facet normal 1 0 0
    outer loop
      vertex 92 2 7
      vertex 92 0 2
      vertex 92 4 2
    endloop
  endfacet
  facet normal -0 0 1
    outer loop
      vertex 2 4 7
      vertex 92 2 7
      vertex 92 4 7
    endloop
  endfacet
  facet normal 0 0 1
    outer loop
      vertex 92 2 7
      vertex 2 4 7
      vertex 2 2 7
    endloop
  endfacet
  facet normal 0 1 -0
    outer loop
      vertex 92 4 2
      vertex 2 4 7
      vertex 92 4 7
    endloop
  endfacet
  facet normal 0 1 0
    outer loop
      vertex 2 4 7
      vertex 92 4 2
      vertex 2 4 2
    endloop
  endfacet
  facet normal 1 0 0
    outer loop
      vertex 92 17 7
      vertex 92 19 10.5
      vertex 92 17 8.5
    endloop
  endfacet
  facet normal 1 -0 0
    outer loop
      vertex 92 15 10.5
      vertex 92 17 8.5
      vertex 92 19 10.5
    endloop
  endfacet
  facet normal 1 0 0
    outer loop
      vertex 92 17 8.5
      vertex 92 15 10.5
      vertex 92 15 8.5
    endloop
  endfacet
  facet normal 1 0 0
    outer loop
      vertex 92 19 10.5
      vertex 92 17 7
      vertex 92 19 2
    endloop
  endfacet
  facet normal 1 0 0
    outer loop
      vertex 92 15 2
      vertex 92 17 7
      vertex 92 15 7
    endloop
  endfacet
  facet normal 1 0 0
    outer loop
      vertex 92 17 7
      vertex 92 15 2
      vertex 92 19 2
    endloop
  endfacet
  facet normal -0 0 1
    outer loop
      vertex 2 17 7
      vertex 92 15 7
      vertex 92 17 7
    endloop
  endfacet
  facet normal 0 0 1
    outer loop
      vertex 92 15 7
      vertex 2 17 7
      vertex 2 15 7
    endloop
  endfacet
  facet normal 0 -1 0
    outer loop
      vertex 2 15 2
      vertex 92 15 7
      vertex 2 15 7
    endloop
  endfacet
  facet normal 0 -1 -0
    outer loop
      vertex 92 15 7
      vertex 2 15 2
      vertex 92 15 2
    endloop
  endfacet
  facet normal 0 0 -1
    outer loop
      vertex 2 2 8.5
      vertex 92 4 8.5
      vertex 92 2 8.5
    endloop
  endfacet
  facet normal -0 0 -1
    outer loop
      vertex 92 4 8.5
      vertex 2 2 8.5
      vertex 2 4 8.5
    endloop
  endfacet
  facet normal 0 1 -0
    outer loop
      vertex 92 2 7
      vertex 2 2 8.5
      vertex 92 2 8.5
    endloop
  endfacet
  facet normal 0 1 0
    outer loop
      vertex 2 2 8.5
      vertex 92 2 7
      vertex 2 2 7
    endloop
  endfacet
  facet normal 0 0 -1
    outer loop
      vertex 2 15 8.5
      vertex 92 17 8.5
      vertex 92 15 8.5
    endloop
  endfacet
  facet normal -0 0 -1
    outer loop
      vertex 92 17 8.5
      vertex 2 15 8.5
      vertex 2 17 8.5
    endloop
  endfacet
  facet normal 0 -1 0
    outer loop
      vertex 2 17 7
      vertex 92 17 8.5
      vertex 2 17 8.5
    endloop
  endfacet
  facet normal 0 -1 -0
    outer loop
      vertex 92 17 8.5
      vertex 2 17 7
      vertex 92 17 7
    endloop
  endfacet
  facet normal 0 1 -0
    outer loop
      vertex 92 4 8.5
      vertex 2 4 10.5
      vertex 92 4 10.5
    endloop
  endfacet
  facet normal 0 1 0
    outer loop
      vertex 2 4 10.5
      vertex 92 4 8.5
      vertex 2 4 8.5
    endloop
  endfacet
  facet normal 0 -1 0
    outer loop
      vertex 2 15 8.5
      vertex 92 15 10.5
      vertex 2 15 10.5
    endloop
  endfacet
  facet normal 0 -1 -0
    outer loop
      vertex 92 15 10.5
      vertex 2 15 8.5
      vertex 92 15 8.5
    endloop
  endfacet
endsolid OpenSCAD_Model
